<?xml version="1.0" standalone="no"?>
<!DOCTYPE svg PUBLIC "-//W3C//DTD SVG 20010904//EN"
 "http://www.w3.org/TR/2001/REC-SVG-20010904/DTD/svg10.dtd">
<svg version="1.0" xmlns="http://www.w3.org/2000/svg"
 width="700.000000pt" height="700.000000pt" viewBox="0 0 700.000000 700.000000"
 preserveAspectRatio="xMidYMid meet">
<metadata>
Created by potrace 1.11, written by Peter Selinger 2001-2013
</metadata>
<g transform="translate(0.000000,700.000000) scale(0.100000,-0.100000)"
fill="#000000" stroke="none">
<path d="M440 6982 c-55 -29 -373 -231 -393 -250 -59 -53 -59 -142 -2 -199 30
-30 46 -35 100 -35 34 0 45 4 128 57 47 30 89 55 92 55 8 0 6 -590 -2 -591 -5
-1 -48 -2 -98 -3 -127 -3 -164 -24 -186 -108 -11 -40 -10 -49 7 -84 35 -66 61
-78 172 -80 53 -2 100 -3 105 -3 4 -1 7 -185 7 -410 l0 -408 -92 -1 c-123 0
-159 -16 -192 -80 -31 -60 -7 -137 54 -171 31 -17 54 -21 134 -21 l96 0 0
-410 0 -410 -92 0 c-142 0 -200 -40 -202 -137 -1 -99 57 -139 203 -138 l91 1
0 -408 c0 -224 -3 -408 -7 -409 -5 -1 -49 -2 -99 -4 -112 -4 -147 -20 -176
-79 -48 -99 29 -202 144 -196 18 1 57 2 86 1 l52 -1 0 -410 0 -410 -95 0 c-63
0 -105 -5 -123 -14 -74 -39 -98 -107 -62 -182 31 -62 60 -75 180 -76 l100 -1
0 -362 0 -361 -135 -1 c-119 -1 -139 -4 -169 -22 -80 -50 -84 -169 -8 -226 23
-17 46 -20 169 -23 l142 -3 3 -142 c3 -123 6 -146 23 -169 21 -28 80 -58 116
-58 37 0 88 31 110 67 19 31 22 49 22 169 l0 134 364 0 364 0 -2 -87 c-2 -92
9 -130 47 -165 32 -27 86 -37 128 -23 76 26 96 66 96 190 l0 85 410 0 410 0 0
-86 c0 -135 42 -194 138 -194 96 0 134 51 136 183 l2 92 409 0 410 0 1 -75 c2
-117 2 -117 35 -154 76 -87 210 -50 234 64 2 8 4 50 4 93 l1 77 410 0 410 0 0
-92 c0 -75 4 -99 20 -125 53 -87 181 -84 233 5 14 24 19 52 19 122 l0 90 409
0 c320 0 409 -3 409 -12 1 -7 2 -51 4 -98 1 -52 8 -94 17 -108 36 -58 128 -81
187 -47 50 30 66 68 67 170 l1 90 297 3 c163 1 297 0 297 -3 0 -4 -23 -42 -50
-85 -28 -43 -55 -92 -60 -109 -10 -36 4 -97 28 -125 45 -50 127 -58 181 -19
25 19 107 142 232 348 83 137 84 131 -78 389 -71 112 -139 211 -152 221 -33
25 -101 31 -139 11 -45 -23 -76 -72 -76 -120 0 -32 13 -61 57 -134 31 -51 57
-95 57 -97 0 -2 -71 -3 -157 -2 l-158 2 -5 1045 c-5 986 -6 1047 -23 1073 -20
31 -73 67 -99 67 -14 0 -16 19 -16 169 l0 170 29 6 c68 15 118 91 105 160 -9
47 -39 81 -90 100 l-44 17 -1 164 c0 148 1 165 17 170 49 15 85 41 103 76 18
36 19 71 19 1039 0 1107 4 1044 -63 1091 -30 22 -39 22 -332 23 -165 1 -314
-2 -331 -7 -16 -4 -43 -22 -60 -39 l-29 -30 -3 -2648 -2 -2648 -138 1 -137 1
0 1517 c0 1514 0 1517 -21 1544 -51 69 -43 67 -366 69 -161 0 -310 -3 -331 -8
-36 -9 -96 -63 -98 -90 -1 -7 -2 -691 -3 -1522 l-1 -1510 -137 -1 -137 0 0
499 -1 500 -25 33 c-45 59 -43 58 -377 60 -295 1 -309 0 -345 -20 -73 -41 -71
-32 -72 -550 0 -253 0 -475 -1 -492 l0 -31 -131 0 c-93 0 -132 3 -135 12 -3 6
-6 457 -7 1001 -2 1093 3 1013 -67 1057 -34 21 -44 22 -346 21 -307 0 -311 0
-342 -23 -68 -48 -64 20 -64 -1076 l0 -992 -137 1 -136 1 -1 1315 c0 1268 -1
1316 -19 1347 -39 66 -52 68 -388 68 -332 0 -350 -3 -390 -59 l-22 -31 -2
-1315 c0 -723 -2 -1318 -2 -1321 -1 -5 -424 -6 -442 -1 -3 1 -6 1343 -6 2982
0 2490 3 2980 14 2976 7 -3 45 -26 84 -52 39 -25 85 -50 102 -55 44 -12 101 6
131 42 32 37 40 68 33 117 -8 51 -49 85 -268 221 -202 126 -235 137 -299 103z"/>
</g>
</svg>
